<?xml version="1.0" standalone="no"?>
<svg xmlns="http://www.w3.org/2000/svg" viewBox="0 0 248.209 29" width="248.209" height="29"><g fill="#f1333f" color="#f1333f" transform="translate(0, 0) scale(0.2265625)"><svg width="128.0" height="128.0" x="0.0" y="0.0" viewBox="0 0 128 128"><path d="M96.6,52.1L105,21l-1.6-21L91.4,17.3L82.1,52H80V41.8c0-0.5-0.2-1-0.5-1.3c0.3-0.5,0.5-1,0.5-1.7c0-0.6-0.2-1.1-0.5-1.6  c0.3-0.3,0.5-0.8,0.5-1.3V9c0-1.1-1.2-2.3-2.3-2.3h-1V2c0-1.1-0.9-2-2-2c-1.1,0-2,0.9-2,2v4.7h-1c-1.1,0-1.7,1.1-1.7,2.3V13  c0-0.6-0.8-1.3-1.3-1.3c-0.3,0-0.5,0.1-0.7,0.3V9.2c0-0.6-0.2-1-0.5-1h-1c-0.3,0-0.4,0.4-0.4,1v26c0,0.6,0.2,1,0.4,1h1  c0.3,0,0.5-0.4,0.5-1V19.4c0.2,0.2,0.4,0.3,0.7,0.3c0.6,0,1.3-0.2,1.3-0.8v16.9c0,0.5-0.1,0.7,0.1,1c-0.3,0.5-0.5,1-0.5,1.6  c0,0.6,0.2,1.2,0.5,1.7C69.9,40.5,70,41,70,41.5V52L39.5,0L23,9.5L47.7,52h-0.3c-2.2,0-4.3,1.8-4.3,4v68c0,2.2,2.1,4,4.3,4h48.2  c2.2,0,4.4-1.8,4.4-4V56C100,54.2,98.3,52.6,96.6,52.1z M94.6,52h-2.1l8.5-31.5l1.2-0.7l0.7,1.2L94.6,52z M100.3,7.9l1.7,0.4  l0.7,9.1c-0.2,0-0.4,0-0.6,0.1l-1.6,0.9l-0.9-1.6c-0.1-0.2-0.4-0.4-0.6-0.5c-0.3-0.1-0.5,0-0.8,0.1l-1.6,0.9l-0.9-1.6  c-0.1-0.2-0.3-0.3-0.5-0.4L100.3,7.9z M93.2,18.4l1.2-0.7l0.7,1.2L86.2,52h-2.1L93.2,18.4z M72.6,37.7h5c0.3,0.2,0.5,0.5,0.5,0.8  c0,0.5-0.4,0.9-0.9,1H73c-0.5-0.1-0.9-0.5-0.9-1C72.2,38.1,72.3,37.8,72.6,37.7z M47.1,47l2.6-1.5l-0.5-0.9l-2.6,1.5l-1-1.7l4.4-2.5  l-0.5-0.9l-4.4,2.5l-1-1.7l2.6-1.5l-0.5-0.9L43.6,41l-1-1.7l2.6-1.5l-0.5-0.9l-2.6,1.5l-1-1.7l4.4-2.5l-0.5-0.9l-4.4,2.5l-1-1.7  l2.6-1.5l-0.5-0.9l-2.6,1.5l-1-1.7l2.6-1.5l-0.5-0.9l-2.6,1.5l-1-1.7l4.4-2.5l-0.5-0.9L36,28l-1-1.7l2.6-1.5l-0.5-0.9l-2.6,1.5  l-1-1.7l2.6-1.5l-0.5-0.9L33,22.8l-1-1.7l4.4-2.5l-0.5-0.9l-4.4,2.5l-1-1.7l2.6-1.5l-0.5-0.9L30,17.6l-1-1.7l2.6-1.5l-0.5-0.9  L28.5,15l-1-1.7l4.4-2.5l-0.5-0.9L27,12.4l-1.3-2.2l13.1-7.5L67.4,52H50.5l3.9-2.3L54,48.9l-4.4,2.5l-1-1.7l2.6-1.5l-0.5-0.9  l-2.6,1.5L47.1,47z"></path></svg></g><line x1="41" y1="1" x2="41" y2="28" stroke="#353434" stroke-linecap="round"></line><path fill="#353434" fill-rule="nonzero" d="M7.63 16.66Q5.42 16.66 3.68 15.59Q1.94 14.52 0.97 12.60Q0 10.68 0 8.21L0 8.21Q0 5.57 1.12 3.72Q2.23 1.87 4.07 0.94Q5.90 0 8.02 0L8.02 0Q9.48 0 10.73 0.30Q11.98 0.60 13.34 1.25L13.34 1.25Q13.08 2.50 13.08 4.97L13.08 4.97Q12.55 5.18 11.81 5.18L11.81 5.18Q11.71 2.78 10.82 1.88Q9.94 0.98 8.21 0.98L8.21 0.98Q6.26 0.98 4.99 1.90Q3.72 2.81 3.12 4.30Q2.52 5.78 2.52 7.56L2.52 7.56Q2.52 9.72 3.25 11.46Q3.98 13.20 5.38 14.20Q6.77 15.19 8.64 15.19L8.64 15.19Q9.77 15.19 10.97 14.81Q12.17 14.42 13.20 13.78L13.20 13.78Q13.34 13.90 13.48 14.12Q13.61 14.35 13.63 14.52L13.63 14.52Q12.17 15.65 10.79 16.15Q9.41 16.66 7.63 16.66L7.63 16.66ZM28.90 15.41Q29.02 15.77 29.02 16.49L29.02 16.49Q28.06 16.44 26.54 16.44L26.54 16.44Q24.96 16.44 24 16.49L24 16.49Q24 15.74 24.14 15.41L24.14 15.41Q24.70 15.34 24.92 15.20Q25.15 15.07 25.15 14.81L25.15 14.81Q25.15 14.59 24.91 14.06L24.91 14.06L24.43 13.03Q20.98 13.03 18.98 13.15L18.98 13.15L18.72 13.78Q18.48 14.33 18.48 14.64L18.48 14.64Q18.48 15.31 19.46 15.41L19.46 15.41Q19.61 15.84 19.61 16.49L19.61 16.49Q18.70 16.44 17.62 16.44L17.62 16.44Q16.68 16.44 15.91 16.49L15.91 16.49Q15.91 15.91 16.06 15.41L16.06 15.41Q16.58 15.31 16.87 14.96Q17.16 14.62 17.64 13.56L17.64 13.56L21.77 4.42Q22.22 4.32 22.73 4.32L22.73 4.32L27.14 13.49Q27.67 14.59 28.04 14.98Q28.42 15.36 28.90 15.41L28.90 15.41ZM19.46 12.05L23.95 12.05L22.51 9.02Q21.89 7.75 21.65 7.01L21.65 7.01Q21.46 7.61 21.18 8.20Q20.90 8.78 20.83 8.93L20.83 8.93L19.46 12.05ZM41.76 13.63Q42.41 14.59 43.09 14.99Q43.78 15.38 44.78 15.43L44.78 15.43Q44.78 16.13 44.69 16.44L44.69 16.44Q42.65 16.44 41.23 16.61L41.23 16.61Q41.06 16.32 40.58 15.60L40.58 15.60L39.50 13.85Q38.62 12.36 37.15 11.42L37.15 11.42L36.38 11.45L35.69 11.42L35.69 13.61Q35.69 14.40 35.81 14.78Q35.93 15.17 36.20 15.31Q36.48 15.46 37.06 15.48L37.06 15.48Q37.15 15.77 37.15 16.49L37.15 16.49Q36.26 16.44 34.54 16.44L34.54 16.44Q33.26 16.44 31.92 16.49L31.92 16.49Q31.92 15.82 32.04 15.48L32.04 15.48Q32.64 15.43 32.94 15.29Q33.24 15.14 33.36 14.78Q33.48 14.42 33.48 13.70L33.48 13.70L33.48 7.20Q33.48 6.17 33.19 5.83Q32.90 5.50 32.04 5.45L32.04 5.45Q31.92 5.09 31.92 4.39L31.92 4.39Q32.83 4.44 34.56 4.44L34.56 4.44L36.29 4.42Q37.54 4.37 38.18 4.37L38.18 4.37Q40.49 4.37 41.66 5.26Q42.84 6.14 42.84 7.54L42.84 7.54Q42.84 8.93 41.95 9.83Q41.06 10.73 39.48 11.04L39.48 11.04Q40.08 11.40 40.48 11.87Q40.87 12.34 41.76 13.63L41.76 13.63ZM36.60 10.25Q38.33 10.25 39.43 9.64Q40.54 9.02 40.54 7.85L40.54 7.85Q40.54 5.40 37.18 5.40L37.18 5.40Q36.41 5.40 35.69 5.54L35.69 5.54L35.69 10.18Q36.19 10.25 36.60 10.25L36.60 10.25ZM58.01 4.39Q57.94 5.69 58.18 7.51L58.18 7.51Q57.67 7.73 57.00 7.73L57.00 7.73Q56.95 6.58 56.39 6.02Q55.82 5.47 54.62 5.47L54.62 5.47L53.57 5.47L53.57 13.70Q53.57 14.45 53.70 14.80Q53.83 15.14 54.18 15.29Q54.53 15.43 55.25 15.48L55.25 15.48Q55.37 15.77 55.37 16.49L55.37 16.49Q53.59 16.44 52.46 16.44L52.46 16.44Q51.07 16.44 49.49 16.49L49.49 16.49Q49.49 15.77 49.61 15.48L49.61 15.48Q50.33 15.43 50.70 15.29Q51.07 15.14 51.22 14.78Q51.36 14.42 51.36 13.70L51.36 13.70L51.36 5.47L50.38 5.47Q49.42 5.47 48.90 5.72Q48.38 5.98 48.14 6.43Q47.90 6.89 47.74 7.73L47.74 7.73Q46.97 7.73 46.61 7.51L46.61 7.51Q46.97 5.88 46.97 4.39L46.97 4.39Q48.22 4.44 52.46 4.44L52.46 4.44Q56.78 4.44 58.01 4.39L58.01 4.39ZM70.90 13.03Q71.54 13.15 71.95 13.56L71.95 13.56Q71.52 14.69 71.30 16.46L71.30 16.46L66.67 16.44Q63.22 16.44 61.10 16.49L61.10 16.49Q61.10 15.74 61.22 15.41L61.22 15.41Q61.82 15.36 62.12 15.22Q62.42 15.07 62.54 14.69Q62.66 14.30 62.66 13.54L62.66 13.54L62.66 7.22Q62.66 6.53 62.53 6.17Q62.40 5.81 62.10 5.66Q61.80 5.52 61.22 5.47L61.22 5.47Q61.10 5.11 61.10 4.39L61.10 4.39Q62.83 4.44 64.87 4.44L64.87 4.44Q69.29 4.44 70.78 4.39L70.78 4.39Q71.04 6.65 71.23 7.37L71.23 7.37Q70.82 7.63 70.15 7.63L70.15 7.63Q70.06 6.62 69.32 6.05Q68.59 5.47 66.74 5.47L66.74 5.47L64.87 5.47L64.87 9.89L66.07 9.89Q67.34 9.89 67.84 9.60Q68.33 9.31 68.35 8.54L68.35 8.54Q68.88 8.38 69.46 8.38L69.46 8.38Q69.41 8.98 69.41 10.39L69.41 10.39Q69.41 11.93 69.46 12.48L69.46 12.48Q68.81 12.48 68.40 12.34L68.40 12.34Q68.33 11.54 67.84 11.26Q67.34 10.97 66.07 10.97L66.07 10.97L64.87 10.97L64.87 13.49Q64.87 14.26 65.03 14.65Q65.18 15.05 65.58 15.20Q65.98 15.36 66.77 15.36L66.77 15.36L66.91 15.36Q68.30 15.36 69.06 15.12Q69.82 14.88 70.19 14.41Q70.56 13.94 70.90 13.03L70.90 13.03ZM86.69 16.66Q84.48 16.66 82.74 15.59Q81.00 14.52 80.03 12.60Q79.06 10.68 79.06 8.21L79.06 8.21Q79.06 5.57 80.17 3.72Q81.29 1.87 83.12 0.94Q84.96 0 87.07 0L87.07 0Q88.54 0 89.78 0.30Q91.03 0.60 92.40 1.25L92.40 1.25Q92.14 2.50 92.14 4.97L92.14 4.97Q91.61 5.18 90.86 5.18L90.86 5.18Q90.77 2.78 89.88 1.88Q88.99 0.98 87.26 0.98L87.26 0.98Q85.32 0.98 84.05 1.90Q82.78 2.81 82.18 4.30Q81.58 5.78 81.58 7.56L81.58 7.56Q81.58 9.72 82.31 11.46Q83.04 13.20 84.43 14.20Q85.82 15.19 87.70 15.19L87.70 15.19Q88.82 15.19 90.02 14.81Q91.22 14.42 92.26 13.78L92.26 13.78Q92.40 13.90 92.53 14.12Q92.66 14.35 92.69 14.52L92.69 14.52Q91.22 15.65 89.84 16.15Q88.46 16.66 86.69 16.66L86.69 16.66ZM102.19 16.66Q100.13 16.66 98.54 15.89Q96.96 15.12 96.08 13.73Q95.21 12.34 95.21 10.49L95.21 10.49Q95.21 8.66 96.08 7.25Q96.96 5.83 98.56 5.05Q100.15 4.27 102.24 4.27L102.24 4.27Q104.30 4.27 105.89 5.04Q107.47 5.81 108.35 7.21Q109.22 8.62 109.22 10.44L109.22 10.44Q109.22 12.29 108.35 13.69Q107.47 15.10 105.88 15.88Q104.28 16.66 102.19 16.66L102.19 16.66ZM102.53 15.55Q104.47 15.55 105.61 14.26Q106.75 12.96 106.75 10.80L106.75 10.80Q106.75 9.24 106.13 8.00Q105.50 6.77 104.39 6.07Q103.27 5.38 101.88 5.38L101.88 5.38Q99.94 5.38 98.81 6.68Q97.68 7.99 97.68 10.13L97.68 10.13Q97.68 11.74 98.30 12.97Q98.93 14.21 100.03 14.88Q101.14 15.55 102.53 15.55L102.53 15.55ZM118.18 15.36Q119.30 15.36 119.96 15.13Q120.62 14.90 121.02 14.41Q121.42 13.92 121.78 13.03L121.78 13.03Q122.42 13.15 122.83 13.56L122.83 13.56Q122.40 14.69 122.18 16.46L122.18 16.46L117.94 16.44Q114.48 16.44 112.37 16.49L112.37 16.49Q112.37 15.74 112.49 15.41L112.49 15.41Q113.06 15.36 113.38 15.22Q113.69 15.07 113.82 14.69Q113.95 14.30 113.95 13.54L113.95 13.54L113.95 7.22Q113.95 6.53 113.82 6.17Q113.69 5.81 113.39 5.66Q113.09 5.52 112.49 5.47L112.49 5.47Q112.39 5.09 112.39 4.39L112.39 4.39Q114.12 4.44 115.06 4.44L115.06 4.44Q116.04 4.44 117.72 4.39L117.72 4.39Q117.72 5.11 117.60 5.47L117.60 5.47Q116.76 5.52 116.46 5.87Q116.16 6.22 116.16 7.25L116.16 7.25L116.16 13.49Q116.16 14.26 116.30 14.65Q116.45 15.05 116.84 15.20Q117.24 15.36 118.03 15.36L118.03 15.36L118.18 15.36ZM132.10 16.66Q130.03 16.66 128.45 15.89Q126.86 15.12 125.99 13.73Q125.11 12.34 125.11 10.49L125.11 10.49Q125.11 8.66 125.99 7.25Q126.86 5.83 128.46 5.05Q130.06 4.27 132.14 4.27L132.14 4.27Q134.21 4.27 135.79 5.04Q137.38 5.81 138.25 7.21Q139.13 8.62 139.13 10.44L139.13 10.44Q139.13 12.29 138.25 13.69Q137.38 15.10 135.78 15.88Q134.18 16.66 132.10 16.66L132.10 16.66ZM132.43 15.55Q134.38 15.55 135.52 14.26Q136.66 12.96 136.66 10.80L136.66 10.80Q136.66 9.24 136.03 8.00Q135.41 6.77 134.29 6.07Q133.18 5.38 131.78 5.38L131.78 5.38Q129.84 5.38 128.71 6.68Q127.58 7.99 127.58 10.13L127.58 10.13Q127.58 11.74 128.21 12.97Q128.83 14.21 129.94 14.88Q131.04 15.55 132.43 15.55L132.43 15.55ZM152.11 13.63Q152.76 14.59 153.44 14.99Q154.13 15.38 155.14 15.43L155.14 15.43Q155.14 16.13 155.04 16.44L155.04 16.44Q153 16.44 151.58 16.61L151.58 16.61Q151.42 16.32 150.94 15.60L150.94 15.60L149.86 13.85Q148.97 12.36 147.50 11.42L147.50 11.42L146.74 11.45L146.04 11.42L146.04 13.61Q146.04 14.40 146.16 14.78Q146.28 15.17 146.56 15.31Q146.83 15.46 147.41 15.48L147.41 15.48Q147.50 15.77 147.50 16.49L147.50 16.49Q146.62 16.44 144.89 16.44L144.89 16.44Q143.62 16.44 142.27 16.49L142.27 16.49Q142.27 15.82 142.39 15.48L142.39 15.48Q142.99 15.43 143.29 15.29Q143.59 15.14 143.71 14.78Q143.83 14.42 143.83 13.70L143.83 13.70L143.83 7.20Q143.83 6.17 143.54 5.83Q143.26 5.50 142.39 5.45L142.39 5.45Q142.27 5.09 142.27 4.39L142.27 4.39Q143.18 4.44 144.91 4.44L144.91 4.44L146.64 4.42Q147.89 4.37 148.54 4.37L148.54 4.37Q150.84 4.37 152.02 5.26Q153.19 6.14 153.19 7.54L153.19 7.54Q153.19 8.93 152.30 9.83Q151.42 10.73 149.83 11.04L149.83 11.04Q150.43 11.40 150.83 11.87Q151.22 12.34 152.11 13.63L152.11 13.63ZM146.95 10.25Q148.68 10.25 149.78 9.64Q150.89 9.02 150.89 7.85L150.89 7.85Q150.89 5.40 147.53 5.40L147.53 5.40Q146.76 5.40 146.04 5.54L146.04 5.54L146.04 10.18Q146.54 10.25 146.95 10.25L146.95 10.25ZM170.30 15.41Q170.42 15.77 170.42 16.49L170.42 16.49Q169.46 16.44 167.95 16.44L167.95 16.44Q166.37 16.44 165.41 16.49L165.41 16.49Q165.41 15.74 165.55 15.41L165.55 15.41Q166.10 15.34 166.33 15.20Q166.56 15.07 166.56 14.81L166.56 14.81Q166.56 14.59 166.32 14.06L166.32 14.06L165.84 13.03Q162.38 13.03 160.39 13.15L160.39 13.15L160.13 13.78Q159.89 14.33 159.89 14.64L159.89 14.64Q159.89 15.31 160.87 15.41L160.87 15.41Q161.02 15.84 161.02 16.49L161.02 16.49Q160.10 16.44 159.02 16.44L159.02 16.44Q158.09 16.44 157.32 16.49L157.32 16.49Q157.32 15.91 157.46 15.41L157.46 15.41Q157.99 15.31 158.28 14.96Q158.57 14.62 159.05 13.56L159.05 13.56L163.18 4.42Q163.63 4.32 164.14 4.32L164.14 4.32L168.55 13.49Q169.08 14.59 169.45 14.98Q169.82 15.36 170.30 15.41L170.30 15.41ZM160.87 12.05L165.36 12.05L163.92 9.02Q163.30 7.75 163.06 7.01L163.06 7.01Q162.86 7.61 162.59 8.20Q162.31 8.78 162.24 8.93L162.24 8.93L160.87 12.05ZM183.26 4.39Q183.19 5.69 183.43 7.51L183.43 7.51Q182.93 7.73 182.26 7.73L182.26 7.73Q182.21 6.58 181.64 6.02Q181.08 5.47 179.88 5.47L179.88 5.47L178.82 5.47L178.82 13.70Q178.82 14.45 178.96 14.80Q179.09 15.14 179.44 15.29Q179.78 15.43 180.50 15.48L180.50 15.48Q180.62 15.77 180.62 16.49L180.62 16.49Q178.85 16.44 177.72 16.44L177.72 16.44Q176.33 16.44 174.74 16.49L174.74 16.49Q174.74 15.77 174.86 15.48L174.86 15.48Q175.58 15.43 175.96 15.29Q176.33 15.14 176.47 14.78Q176.62 14.42 176.62 13.70L176.62 13.70L176.62 5.47L175.63 5.47Q174.67 5.47 174.16 5.72Q173.64 5.98 173.40 6.43Q173.16 6.89 172.99 7.73L172.99 7.73Q172.22 7.73 171.86 7.51L171.86 7.51Q172.22 5.88 172.22 4.39L172.22 4.39Q173.47 4.44 177.72 4.44L177.72 4.44Q182.04 4.44 183.26 4.39L183.26 4.39ZM196.15 13.03Q196.80 13.15 197.21 13.56L197.21 13.56Q196.78 14.69 196.56 16.46L196.56 16.46L191.93 16.44Q188.47 16.44 186.36 16.49L186.36 16.49Q186.36 15.74 186.48 15.41L186.48 15.41Q187.08 15.36 187.38 15.22Q187.68 15.07 187.80 14.69Q187.92 14.30 187.92 13.54L187.92 13.54L187.92 7.22Q187.92 6.53 187.79 6.17Q187.66 5.81 187.36 5.66Q187.06 5.52 186.48 5.47L186.48 5.47Q186.36 5.11 186.36 4.39L186.36 4.39Q188.09 4.44 190.13 4.44L190.13 4.44Q194.54 4.44 196.03 4.39L196.03 4.39Q196.30 6.65 196.49 7.37L196.49 7.37Q196.08 7.63 195.41 7.63L195.41 7.63Q195.31 6.62 194.58 6.05Q193.85 5.47 192.00 5.47L192.00 5.47L190.13 5.47L190.13 9.89L191.33 9.89Q192.60 9.89 193.09 9.60Q193.58 9.31 193.61 8.54L193.61 8.54Q194.14 8.38 194.71 8.38L194.71 8.38Q194.66 8.98 194.66 10.39L194.66 10.39Q194.66 11.93 194.71 12.48L194.71 12.48Q194.06 12.48 193.66 12.34L193.66 12.34Q193.58 11.54 193.09 11.26Q192.60 10.97 191.33 10.97L191.33 10.97L190.13 10.97L190.13 13.49Q190.13 14.26 190.28 14.65Q190.44 15.05 190.84 15.20Q191.23 15.36 192.02 15.36L192.02 15.36L192.17 15.36Q193.56 15.36 194.32 15.12Q195.07 14.88 195.44 14.41Q195.82 13.94 196.15 13.03L196.15 13.03Z" transform="translate(51, 6.172)"></path></svg>